<svg width="192" height="192" viewBox="0 0 192 192" fill="none" xmlns="http://www.w3.org/2000/svg">
<rect width="192" height="192" rx="96" fill="black"/>
<g clip-path="url(#clip0_4_5)">
<path d="M90.3889 35.1139C86.8312 35.472 82.0081 36.5226 78.2117 37.7881C63.7422 42.5396 51.5889 53.0932 44.8794 66.7508C42.1575 72.2902 40.3667 77.9968 39.5071 83.9422C38.9818 87.4521 38.9102 95.7374 39.3639 99.104C40.7965 109.419 44.9272 119.256 51.3023 127.398C52.0186 128.306 54.2631 130.693 56.2687 132.699C59.9219 136.304 59.9458 136.328 59.4205 136.686C58.2266 137.522 55.5524 140.387 54.5496 141.892C52.329 145.234 51.3501 148.601 51.1591 153.711L51.0397 157.125H96H140.96L140.841 153.734C140.769 151.8 140.531 149.556 140.292 148.553C139.241 144.04 136.949 140.387 133.129 137.14L131.959 136.137L133.129 135.134C136.853 131.983 140.936 127.279 144.255 122.336L145.903 119.877L142.274 118.062C140.268 117.059 138.596 116.224 138.573 116.2C138.549 116.176 139.098 114.982 139.814 113.55C145.473 102.113 146.428 88.7892 142.417 76.7075C140.745 71.6456 137.403 65.5569 134.036 61.3785C132.174 59.0863 127.613 54.6691 125.56 53.1409C124.652 52.4724 123.936 51.8755 123.936 51.78C123.936 51.6844 124.724 49.9414 125.703 47.9119L127.47 44.211L124.939 42.7783C117.847 38.7909 111.448 36.5465 104.094 35.472C101.086 35.0183 93.3496 34.8273 90.3889 35.1139ZM100.417 43.232C103.497 43.5424 107.007 44.211 109.849 45.0467C112.475 45.8346 116.797 47.5537 116.725 47.7686C116.677 47.8641 112.308 56.9374 107.007 67.9208L97.361 87.8819H95.9045C90.5083 87.8819 85.5658 91.7499 84.1809 97.0745C83.4646 99.8681 83.8227 102.972 85.2315 105.742C88.622 112.427 97.6475 114.314 103.664 109.586C104.142 109.204 104.62 108.894 104.691 108.894C104.906 108.894 133.344 122.742 133.558 122.957C133.869 123.268 128.282 128.735 125.488 130.813L122.862 132.771H96H69.1384L66.8701 131.075C60.3994 126.228 55.4808 120.307 52.0664 113.311C42.3007 93.3019 47.3626 69.2101 64.363 54.6929C74.272 46.2644 87.5714 42.0382 100.417 43.232ZM124.796 63.3841C128.329 66.9179 130.741 70.3085 132.747 74.5108C138.143 85.8523 138.047 98.7936 132.46 110.016C131.792 111.377 131.171 112.475 131.075 112.475C130.765 112.475 128.067 111.186 119.28 106.864C114.552 104.548 110.135 102.375 109.467 102.065L108.249 101.516L108.129 99.4144C107.962 96.8835 107.342 95.1405 105.861 92.9677C104.906 91.5589 104.811 91.3202 105.073 90.771C105.216 90.4367 108.679 83.202 112.785 74.7018L120.211 59.2773L120.951 59.7549C121.333 60.0414 123.076 61.665 124.796 63.3841ZM97.9101 96.5492C99.1279 97.1939 100.059 98.6981 100.059 100.011C100.059 102.184 98.1489 104.118 96 104.118C93.1825 104.118 91.2007 101.134 92.2752 98.531C93.2064 96.2866 95.7373 95.4031 97.9101 96.5492ZM123.578 141.247C125.536 141.772 127.136 142.679 128.855 144.279C130.144 145.497 131.815 148.004 131.815 148.744C131.815 148.935 122.074 149.007 96 149.007C69.9264 149.007 60.1846 148.935 60.1846 148.744C60.1846 148.004 61.8559 145.497 63.1453 144.279C64.8406 142.727 66.4642 141.772 68.3266 141.271C70.3084 140.722 121.524 140.722 123.578 141.247Z" fill="white"/>
</g>
<defs>
<clipPath id="clip0_4_5">
<rect width="122.25" height="122.25" fill="white" transform="translate(34.875 34.875)"/>
</clipPath>
</defs>
</svg>
